<svg width="469.333" height="469.333" xmlns="http://www.w3.org/2000/svg">

 <g>
  <title>Layer 1</title>
  <g id="svg_24">
   <rect id="svg_23" height="80" width="439" y="16.6665" x="17.1665" opacity="undefined" fill-opacity="null" stroke-opacity="null" stroke-dasharray="null" stroke-width="null" stroke="null" fill="null"/>
   <path id="svg_4" d="m426.667,0l-384,0c-23.532,0 -42.667,19.135 -42.667,42.667l0,384c0,23.531 19.135,42.667 42.667,42.667l384,0c23.531,0 42.667,-19.135 42.667,-42.667l0,-384c-0.001,-23.532 -19.136,-42.667 -42.667,-42.667zm21.333,426.667c0,11.76 -9.573,21.333 -21.333,21.333l-384,0c-11.76,0 -21.333,-9.573 -21.333,-21.333l0,-320l426.666,0l0,320zm0,-341.334l-426.667,0l0,-42.666c0,-11.76 9.573,-21.333 21.333,-21.333l384,0c11.76,0 21.333,9.573 21.333,21.333l0,42.666l0.001,0z"/>
  </g>
  <circle fill="#ffffff" id="svg_5" r="10.667" cy="53.333" cx="53.333"/>
  <circle fill="#ffffff" id="svg_6" r="10.667" cy="53.333" cx="96"/>
  <circle fill="#ffffff" id="svg_7" r="10.667" cy="53.333" cx="138.667"/>
  <g id="svg_8"/>
  <g id="svg_9"/>
  <g id="svg_10"/>
  <g id="svg_11"/>
  <g id="svg_12"/>
  <g id="svg_13"/>
  <g id="svg_14"/>
  <g id="svg_15"/>
  <g id="svg_16"/>
  <g id="svg_17"/>
  <g id="svg_18"/>
  <g id="svg_19"/>
  <g id="svg_20"/>
  <g id="svg_21"/>
  <g id="svg_22"/>
 </g>
</svg>