<svg width="480" height="480" xmlns="http://www.w3.org/2000/svg">

 <g>
  <title>Layer 1</title>
  <g stroke="null" id="svg_1">
   <g stroke="null" id="svg_2">
    <g stroke="null" id="svg_3">
     <path stroke="null" id="svg_4" d="m275.83337,159l-91.6667,0c-5.06,0.00596 -9.16071,4.10667 -9.16667,9.16667l0,58.66669c0.00596,5.06 4.10667,9.16071 9.16667,9.16667l91.6667,0c0.51448,0.00206 1.02804,-0.04285 1.5345,-0.13383c4.41123,-0.73838 7.64065,-4.56019 7.63217,-9.03284l0,-58.66669c-0.00596,-5.06023 -4.10667,-9.16071 -9.16667,-9.16667zm-91.6667,73.33336c-2.84969,-0.00046 -5.22729,-2.17731 -5.478,-5.016l36.55302,-23.89934l37.17268,28.91535l-68.24769,0zm97.16671,-5.5c0.00298,2.69088 -1.94608,4.9869 -4.60167,5.42117c-0.29654,0.0534 -0.59721,0.07975 -0.89833,0.07883l-17.44784,0l-24.28984,-18.90351l21.72134,-17.36901l25.51634,15.31017l0,15.46234zm0,-19.73767l-24.72251,-14.83351c-0.65725,-0.39531 -1.49096,-0.33963 -2.09,0.13933l-23.40618,18.71834l-14.65751,-11.39967c-0.6176,-0.47988 -1.47148,-0.5154 -2.12667,-0.088l-35.66385,23.31818l0,-54.78369c0,-3.03761 2.4624,-5.5 5.5,-5.5l91.6667,0c3.03761,0 5.5,2.4624 5.5,5.5l0,38.92902z"/>
     <path stroke="null" id="svg_5" d="m230.00002,170c-6.07521,0 -11,4.92479 -11,11c0.00596,6.07269 4.92731,10.99405 11,11c6.07521,0 11,-4.92479 11,-11c0,-6.07521 -4.92479,-11 -11,-11zm0,18.33334c-4.05006,0 -7.33334,-3.28327 -7.33334,-7.33334s3.28327,-7.33334 7.33334,-7.33334c4.05006,0 7.33334,3.28327 7.33334,7.33334s-3.28327,7.33334 -7.33334,7.33334z"/>
    </g>
   </g>
  </g>
  <g id="svg_6"/>
  <g id="svg_7"/>
  <g id="svg_8"/>
  <g id="svg_9"/>
  <g id="svg_10"/>
  <g id="svg_11"/>
  <g id="svg_12"/>
  <g id="svg_13"/>
  <g id="svg_14"/>
  <g id="svg_15"/>
  <g id="svg_16"/>
  <g id="svg_17"/>
  <g id="svg_18"/>
  <g id="svg_19"/>
  <g id="svg_20"/>
  <text stroke="#000" transform="matrix(1.2725889682769773,0,0,1.2725889682769773,-64.20230877399445,-72.0109475851059) " xml:space="preserve" text-anchor="start" font-family="sans-serif" font-size="24" id="svg_21" y="271.5" x="180.5" opacity="undefined" stroke-width="0" fill="#000000">No image</text>
 </g>
</svg>